{"title":"Dead.Fish.2004.SWESUB.DVDRip.XviD.-Zen_Bud","uid":5689232,"size":1467926528,"categoryP":"video","categoryS":"movies","magnet":"?xt=urn:btih:97788738d89e5671c203a82ffd13f6f00f11d147&amp;dn=Dead.Fish.2004.SWESUB.DVDRip.XviD.-Zen_Bud&amp;tr=udp%3A%2F%2Ftracker.openbittorrent.com%3A80&amp;tr=udp%3A%2F%2Fopen.demonii.com%3A1337&amp;tr=udp%3A%2F%2Ftracker.coppersurfer.tk%3A6969&amp;tr=udp%3A%2F%2Fexodus.desync.com%3A6969","seeders":0,"leechers":1,"uploader":null,"files":1,"time":1279003736,"description":"General\nComplete name                    : Dead.Fish.2004.avi\nFormat                           : AVI\nFile size                        : 1.37 GiB\nDuration                         : 1h 30mn\nOverall bit rate                 : 2 162 Kbps\n\n\nVideo\n\nFormat                           : MPEG-4 Visual\nCodec ID/Hint                    : XviD\nDuration                         : 1h 30mn\nBit rate                         : 2 025 Kbps\nWidth                            : 720 pixels\nHeight                           : 420 pixels\nDisplay aspect ratio             : 16:9\nStream size                      : 1.28 GiB (94%)\nWriting library                  : XviD 1.2.1 (UTC 2008-12-04)\n\nAudio\n\nFormat                           : MPEG Audio\nCodec ID/Hint                    : MP3\nDuration                         : 1h 30mn\nBit rate                         : 128 Kbps\nChannel(s)                       : 2 channels\nSampling rate                    : 48.0 KHz\nStream size                      : 82.9 MiB (6%)\nWriting library                  : LAME3.97 \n\n &lt;a href=&quot;\nhttp://www.imdb.com/title/tt0379240/&quot; rel=&quot;nofollow&quot; target=&quot;_NEW&quot;&gt;\nhttp://www.imdb.com/title/tt0379240/&lt;/a&gt;","torrent":{"xt":"urn:btih:97788738d89e5671c203a82ffd13f6f00f11d147","amp;dn":"Dead.Fish.2004.SWESUB.DVDRip.XviD.-Zen_Bud","amp;tr":["udp%3A%2F%2Ftracker.openbittorrent.com%3A80","udp%3A%2F%2Fopen.demonii.com%3A1337","udp%3A%2F%2Ftracker.coppersurfer.tk%3A6969","udp%3A%2F%2Fexodus.desync.com%3A6969"],"infoHash":"97788738d89e5671c203a82ffd13f6f00f11d147","infoHashBuffer":{"type":"Buffer","data":[151,120,135,56,216,158,86,113,194,3,168,47,253,19,246,240,15,17,209,71]},"announce":[],"urlList":[]}}